<svg id="Capa_1" enable-background="new 0 0 512 512" height="512" viewBox="0 0 512 512" width="512" xmlns="http://www.w3.org/2000/svg"><g><path d="m256 22c-135.31 0-245 109.69-245 245 0 53.052 16.867 102.162 45.524 142.271l.847-.535c-9.118-16.404-15.889-34.08-20.125-52.539-20.01-87.198 34.651-174.418 121.848-194.428 1.033-.237 2.091-.357 3.141-.357 6.561 0 12.168 4.47 13.637 10.871 1.727 7.524-2.99 15.05-10.514 16.777-72.15 16.556-117.378 88.724-100.821 160.874 6.682 29.114 20.822 55.989 40.894 77.719 1.143 1.237 2.688 1.919 4.352 1.918 2.793 0 5.207-1.891 5.871-4.598 8.058-34.834 22.338-65.042 42.448-89.797.778-.958 1.54-1.877 2.314-2.793l.081-.096c.764-.903 1.535-1.797 2.317-2.688l.065-.076c17.71-20.143 39.666-36.389 65.258-48.284 3.737-1.737 6.636-4.772 8.158-8.544l20.301-50.247 39.232 27.16c6.647 4.602 14.436 7.035 22.521 7.035s15.874-2.433 22.522-7.035l35.501-24.577v254.251l1 .581c73.851-42.2 123.628-121.716 123.628-212.863 0-135.31-109.69-245-245-245z" fill="#c35ac7"/><path d="m340.304 248.784c-6.48 4.486-14.071 6.857-21.953 6.857s-15.473-2.371-21.952-6.857l-40.261-27.871-20.768 51.407c-1.434 3.55-4.182 6.398-7.654 8.012-91.013 42.305-114.079 127.909-119.109 182.378 41.016 30.938 92.059 49.29 147.393 49.29 44.163 0 85.593-11.691 121.374-32.138v-256.741z" fill="#704fb9"/><g><g><path d="m367.02 53.78c15.812 0 30.104 9.97 35.565 24.808l13.612 36.986v-110.566c0-2.916-2.49-5.249-5.395-4.988-34.928 3.136-55.229 36.229-63.609 53.76z" fill="#704fb9"/><path d="m367.02 53.78c14.62 0 27.936 8.528 34.178 21.543v-50.089c0-3.845-4.156-6.252-7.495-4.343-7.51 4.293-14.571 10.837-21.128 19.601-3.402 4.547-6.234 9.14-8.517 13.288z" fill="#4b3087"/><path d="m234.116 78.588c5.462-14.838 19.754-24.808 35.565-24.808h19.826c-8.38-17.531-28.681-50.623-63.609-53.76-2.905-.261-5.395 2.072-5.395 4.988v110.566z" fill="#704fb9"/><path d="m269.682 53.78h2.962c-2.283-4.149-5.115-8.742-8.517-13.288-6.557-8.763-13.618-15.308-21.128-19.601-3.338-1.908-7.495.498-7.495 4.343v50.088c6.242-13.015 19.558-21.542 34.178-21.542z" fill="#5d3f9a"/></g><path d="m340.873 249.606 98.217-67.993c1.125-.779 1.58-2.219 1.108-3.503l-36.674-99.648c-5.631-15.297-20.203-25.462-36.504-25.462h-97.338c-16.301 0-30.873 10.165-36.504 25.463l-36.674 99.648c-.472 1.284-.017 2.724 1.108 3.503l98.217 67.993c13.549 9.379 31.494 9.379 45.044-.001z" fill="#5d3f9a"/><path d="m348.127 238.965-90.576-62.703c-3.291-2.278-5.425-5.693-6.165-9.419-12.561-5.402-21.712-17.217-23.316-31.329-.269-2.37 1.609-4.444 3.995-4.444h30.134l23.278-63.249c2.119-5.757 5.505-10.786 9.772-14.821h-25.567c-16.301 0-30.874 10.165-36.504 25.463l-36.674 99.648c-.472 1.284-.017 2.724 1.108 3.503l98.217 67.993c13.55 9.38 31.494 9.38 45.044 0l11.622-8.045c-1.494-.773-2.959-1.622-4.368-2.597z" fill="#4b3087"/><path d="m301.433 131.07h-24.415l-.631 1c1.235 2.686 1.861 5.544 1.861 8.506 0 7.796-4.499 14.967-11.5 18.399-7.001-3.432-11.5-10.603-11.5-18.399 0-2.962.626-5.821 1.861-8.506l-.63-1h-24.415c-2.392 0-4.264 2.084-3.993 4.461 2.213 19.4 18.685 34.469 38.677 34.469s36.464-15.069 38.677-34.469c.272-2.376-1.6-4.461-3.992-4.461z" fill="#fed402"/><path d="m320.67 202.618 20.272-24.716c1.606-1.958.213-4.903-2.32-4.903h-40.544c-2.533 0-3.926 2.944-2.32 4.903l20.272 24.716c1.201 1.464 3.44 1.464 4.64 0z" fill="#eadeff"/><path d="m316.686 177.903c-1.606-1.958-.213-4.903 2.32-4.903h-20.927c-2.532 0-3.926 2.944-2.319 4.903l20.272 24.716c1.2 1.463 3.439 1.463 4.639 0l8.144-9.929z" fill="#d3c4f7"/><g><path d="m254.249 140.577c0 8.656 5.127 16.098 12.5 19.506 7.373-3.408 12.5-10.85 12.5-19.506 0-3.418-.809-6.641-2.231-9.506h-20.538c-1.421 2.865-2.231 6.088-2.231 9.506z" fill="#fb8801"/><g><path d="m404.636 131.07h-24.415l-.631 1c1.235 2.686 1.861 5.544 1.861 8.506 0 7.796-4.499 14.967-11.5 18.399-7.001-3.432-11.5-10.603-11.5-18.399 0-2.962.626-5.821 1.861-8.506l-.631-1h-24.415c-2.392 0-4.264 2.084-3.992 4.461 2.213 19.4 18.685 34.469 38.677 34.469s36.464-15.069 38.677-34.469c.272-2.376-1.6-4.461-3.992-4.461z" fill="#fed402"/><path d="m357.452 140.577c0 8.656 5.127 16.098 12.5 19.506 7.373-3.408 12.5-10.85 12.5-19.506 0-3.418-.809-6.641-2.231-9.506h-20.539c-1.421 2.865-2.23 6.088-2.23 9.506z" fill="#fb8801"/></g></g></g><g fill="#5d3f9a"><path d="m335.374 342v156.847c14.678-5.024 28.728-11.4 42-18.985v-137.862c0-11.598-9.402-21-21-21-11.598 0-21 9.402-21 21z"/><path d="m282.374 321c-11.598 0-21 9.402-21 21v169.932c14.338-.309 28.37-1.855 42-4.526v-165.406c0-11.598-9.402-21-21-21z"/><path d="m162.129 328.862c-26.297 29.912-40.213 64.662-47.427 95.807-.906 3.911-5.813 5.254-8.537 2.305-19.881-21.523-33.923-47.935-40.654-77.264-16.434-71.612 28.457-143.243 100.069-159.676 8.074-1.853 13.117-9.901 11.265-17.975-1.853-8.075-9.904-13.115-17.976-11.265-87.733 20.133-142.73 107.891-122.598 195.626 4.303 18.752 11.153 36.49 20.253 52.85 36.697 51.361 92.736 87.945 157.476 99.13v-99.046c0-35.787-21.278-66.604-51.871-80.492z"/></g></g></svg>